<svg preserveAspectRatio="xMidYMid meet"  viewBox="0 0 110 115" class="svg-smile">
    <circle id="left-ear" cx="15" cy="60" r="10" stroke="black" stroke-width="4" fill="#ccffef" />
    <circle id="right-ear" cx="95" cy="60" r="10" stroke="black" stroke-width="4" fill="#ccffef" />
    <circle id="head" cx="55" cy="60" r="40" stroke="black" stroke-width="4" fill="#ccffef" />
    <circle id="left-eye" cx="44" cy="50" r="11" stroke="black" stroke-width="4" fill="white" />
    <circle id="right-eye" cx="66" cy="53" r="11" stroke="black" stroke-width="4" fill="white" />
    <circle id="left-pupil" cx="66" cy="53" r="1" stroke="black" stroke-width="3" fill="black" />
    <circle id="right-pupil" cx="44" cy="50" r="1" stroke="black" stroke-width="3" fill="black" />
    <path id="mouth" d="M 38 73 C 42 95 68 95 72 73" stroke="black" stroke-width="4" stroke-linecap="round" fill="none" />
    <g id="hair">
        <path d="M 18 44 L 10 40" stroke="black" stroke-width="4" stroke-linecap="round"/>
        <path d="M 23 33 L 17 29" stroke="black" stroke-width="4" stroke-linecap="round"/>
        <path d="M 33 26 L 28 19" stroke="black" stroke-width="4" stroke-linecap="round"/>
        <path d="M 44 20 L 41 13" stroke="black" stroke-width="4" stroke-linecap="round"/>
        <path d="M 55 20 L 55 10" stroke="black" stroke-width="4" stroke-linecap="round"/>
        <path d="M 66 20 L 69 13" stroke="black" stroke-width="4" stroke-linecap="round"/>
        <path d="M 76 26 L 82 19" stroke="black" stroke-width="4" stroke-linecap="round"/>
        <path d="M 86 33 L 93 29" stroke="black" stroke-width="4" stroke-linecap="round"/>
        <path d="M 92 44 L 100 40" stroke="black" stroke-width="4" stroke-linecap="round"/>
    </g>

    Sorry, your browser does not support inline SVG.
</svg>